<svg xmlns="http://www.w3.org/2000/svg" width="49.997" height="49.997" viewBox="0 0 49.997 49.997"><defs><style>.a{fill:#1c65e4;}</style></defs><g transform="translate(-2821 -1776.605)"><g transform="translate(2821 1776.605)"><g transform="translate(0 0)"><path class="a" d="M39.657,0H10.34A10.352,10.352,0,0,0,0,10.34V39.657A10.352,10.352,0,0,0,10.34,50H33.7a.74.74,0,1,0,0-1.481H10.34a8.869,8.869,0,0,1-8.859-8.859V10.34A8.869,8.869,0,0,1,10.34,1.481H39.657a8.869,8.869,0,0,1,8.859,8.859V39.657a8.869,8.869,0,0,1-8.859,8.859h-3a.74.74,0,0,0,0,1.481h3A10.351,10.351,0,0,0,50,39.657V10.34A10.352,10.352,0,0,0,39.657,0Z" transform="translate(0 0)"/><path class="a" d="M315.367,232.944a4.733,4.733,0,0,0,2.343-2.794l4.285-13.6a6.728,6.728,0,1,0-12.969-.489,21.243,21.243,0,0,1-.4,11.23A4.767,4.767,0,0,0,315.367,232.944Zm-5.333-5.212a22.723,22.723,0,0,0,.434-12.014,5.247,5.247,0,1,1,10.115.383l-4.285,13.6a3.284,3.284,0,1,1-6.264-1.973Z" transform="translate(-278.278 -187.503)"/><path class="a" d="M70.246,231.986a3.271,3.271,0,0,1-3.131-2.3L63.9,219.5a.74.74,0,1,0-1.412.445l3.21,10.191a4.765,4.765,0,1,0,9.089-2.863,21.227,21.227,0,0,1-.4-11.23A6.729,6.729,0,1,0,61.1,214.505a7.75,7.75,0,0,0,.5,2.612.74.74,0,1,0,1.412-.445,6.39,6.39,0,0,1-.429-2.167,5.248,5.248,0,1,1,10.359,1.2,22.708,22.708,0,0,0,.434,12.014A3.282,3.282,0,0,1,70.246,231.986Z" transform="translate(-55.138 -187.485)"/><path class="a" d="M130.976,51.546a2.478,2.478,0,0,0,3.167-1.082l.917-1.667a.74.74,0,0,0-1.3-.713l-.917,1.667a1,1,0,0,1-1.272.44,18.652,18.652,0,0,0-6.837-1.579V41.868a.74.74,0,0,0-1.481,0v6.744a18.65,18.65,0,0,0-6.837,1.579,1,1,0,0,1-1.272-.44l-3.83-6.967a1,1,0,0,1,.442-1.388,28.755,28.755,0,0,1,24.475,0,1,1,0,0,1,.442,1.388l-1.487,2.7a.74.74,0,1,0,1.3.713l1.487-2.7a2.485,2.485,0,0,0-1.108-3.441,30.238,30.238,0,0,0-25.737,0A2.485,2.485,0,0,0,110.02,43.5l3.83,6.967a2.478,2.478,0,0,0,3.167,1.082A17.294,17.294,0,0,1,130.976,51.546Z" transform="translate(-98.998 -33.551)"/></g></g></g></svg>