<svg xmlns="http://www.w3.org/2000/svg" width="44.906" height="50" viewBox="0 0 44.906 50"><defs><style>.a{fill:#1c65e4;}</style></defs><g transform="translate(-0.045)"><path class="a" d="M44.1,21.872a.844.844,0,0,0,.847-.841V.841A.844.844,0,0,0,44.1,0c-3.666,0-9.32,2.89-9.32,6.73v.841H16.99a4.226,4.226,0,0,0-4.236,4.206v4.009a5.031,5.031,0,0,0-1.622,2.854A10.967,10.967,0,0,0,1.775,28.745a2.515,2.515,0,0,0,.812,4.9H28.005a2.515,2.515,0,0,0,.812-4.9,10.967,10.967,0,0,0-9.357-10.106,5.031,5.031,0,0,0-1.622-2.854V12.618H34.783v2.524C34.783,18.981,40.437,21.872,44.1,21.872ZM36.478,6.73c0-2.439,3.908-4.6,6.778-4.988V20.13c-2.871-.383-6.778-2.548-6.778-4.988ZM17.685,18.507H12.907c.286-.854.932-1.682,1.542-1.682h1.695C16.756,16.824,17.4,17.653,17.685,18.507Zm10.32,13.46H2.586a.841.841,0,1,1,0-1.682H28.005a.841.841,0,1,1,0,1.682ZM27.12,28.6H3.472a9.307,9.307,0,0,1,9.282-8.412h5.084A9.307,9.307,0,0,1,27.12,28.6ZM16.99,10.936a.844.844,0,0,0-.847.841v3.365H14.449V11.777A2.533,2.533,0,0,1,16.99,9.253H34.783v1.682Zm0,0"/><path class="a" d="M25.763,336.86a.86.86,0,0,0-1.72,0v.86a.86.86,0,1,0,1.72,0Zm0,0" transform="translate(-21.418 -300.443)"/><path class="a" d="M57.763,336.86a.86.86,0,0,0-1.72,0v5.16a.86.86,0,1,0,1.72,0Zm0,0" transform="translate(-49.978 -300.498)"/><path class="a" d="M89.763,336.86a.86.86,0,0,0-1.72,0v.86a.86.86,0,1,0,1.72,0Zm0,0" transform="translate(-78.684 -300.443)"/><path class="a" d="M121.763,336.86a.86.86,0,0,0-1.72,0v5.16a.86.86,0,1,0,1.72,0Zm0,0" transform="translate(-107.297 -300.498)"/><path class="a" d="M153.763,336.86a.86.86,0,1,0-1.72,0v.86a.86.86,0,1,0,1.72,0Zm0,0" transform="translate(-135.909 -300.443)"/><path class="a" d="M185.763,336.86a.86.86,0,1,0-1.72,0v5.16a.86.86,0,1,0,1.72,0Zm0,0" transform="translate(-164.522 -300.498)"/><path class="a" d="M217.763,336.86a.86.86,0,0,0-1.72,0v.86a.86.86,0,1,0,1.72,0Zm0,0" transform="translate(-193.135 -300.443)"/><path class="a" d="M56.9,416a.86.86,0,0,0-.86.86v2.58a.86.86,0,1,0,1.72,0v-2.58A.86.86,0,0,0,56.9,416Zm0,0" transform="translate(-49.978 -372.03)"/><path class="a" d="M120.9,416a.86.86,0,0,0-.86.86v2.58a.86.86,0,1,0,1.72,0v-2.58A.86.86,0,0,0,120.9,416Zm0,0" transform="translate(-107.297 -372.03)"/><path class="a" d="M184.9,416a.86.86,0,0,0-.86.86v2.58a.86.86,0,1,0,1.72,0v-2.58A.86.86,0,0,0,184.9,416Zm0,0" transform="translate(-164.522 -372.03)"/><path class="a" d="M248.9,416a.86.86,0,0,0-.86.86v2.58a.86.86,0,1,0,1.72,0v-2.58A.86.86,0,0,0,248.9,416Zm0,0" transform="translate(-221.748 -372.03)"/><path class="a" d="M249.763,336.86a.86.86,0,1,0-1.72,0v5.16a.86.86,0,1,0,1.72,0Zm0,0" transform="translate(-221.748 -300.498)"/><path class="a" d="M25.763,376.86a.86.86,0,1,0-1.72,0v5.16a.86.86,0,0,0,1.72,0Zm0,0" transform="translate(-21.418 -336.331)"/><path class="a" d="M89.763,376.86a.86.86,0,1,0-1.72,0v5.16a.86.86,0,0,0,1.72,0Zm0,0" transform="translate(-78.684 -336.331)"/><path class="a" d="M153.763,376.86a.86.86,0,1,0-1.72,0v5.16a.86.86,0,0,0,1.72,0Zm0,0" transform="translate(-135.909 -336.331)"/><path class="a" d="M217.763,376.86a.86.86,0,1,0-1.72,0v5.16a.86.86,0,0,0,1.72,0Zm0,0" transform="translate(-193.135 -336.331)"/><path class="a" d="M25.228,456.053a.891.891,0,0,0-.5-.042,1.15,1.15,0,0,0-.155.042,1.7,1.7,0,0,0-.156.086,1.436,1.436,0,0,0-.128.1.991.991,0,0,0-.181.284.723.723,0,0,0-.069.328.86.86,0,1,0,1.651-.327.888.888,0,0,0-.181-.284A1.3,1.3,0,0,0,25.228,456.053Zm0,0" transform="translate(-21.416 -407.724)"/><path class="a" d="M88.292,456.338a.888.888,0,0,0-.181.284.851.851,0,0,0,.181.937.888.888,0,0,0,.284.181.851.851,0,0,0,1.118-1.118.992.992,0,0,0-.181-.284A.9.9,0,0,0,88.292,456.338Zm0,0" transform="translate(-78.683 -407.819)"/><path class="a" d="M153.376,456.15a.93.93,0,0,0-.146-.086,1,1,0,0,0-.164-.042.865.865,0,0,0-.489.042,1.3,1.3,0,0,0-.284.19.888.888,0,0,0-.181.284.851.851,0,0,0,.181.937.992.992,0,0,0,.284.181.851.851,0,0,0,1.118-1.118.991.991,0,0,0-.181-.284A.878.878,0,0,0,153.376,456.15Zm0,0" transform="translate(-135.909 -407.734)"/><path class="a" d="M216.29,456.338a.888.888,0,0,0-.181.284.72.72,0,0,0-.069.327.852.852,0,0,0,.249.611.991.991,0,0,0,.284.181.851.851,0,0,0,1.187-.791.731.731,0,0,0-.069-.327.992.992,0,0,0-.181-.284A.9.9,0,0,0,216.29,456.338Zm0,0" transform="translate(-193.133 -407.819)"/></g></svg>