<svg xmlns="http://www.w3.org/2000/svg" width="36.678" height="50.015" viewBox="0 0 36.678 50.015"><defs><style>.a{fill:#1c65e4;}</style></defs><g transform="translate(-10 -2)"><path class="a" d="M45.011,15.337H43.995L40.818,2.631A.834.834,0,0,0,40.009,2H16.669a.834.834,0,0,0-.809.631L12.683,15.337H11.667A1.667,1.667,0,0,0,10,17v3.334a1.667,1.667,0,0,0,1.667,1.667h.879l1.58,28.435a1.667,1.667,0,0,0,1.667,1.575h25.1a1.667,1.667,0,0,0,1.667-1.575l1.577-28.435h.879a1.667,1.667,0,0,0,1.667-1.667V17a1.667,1.667,0,0,0-1.667-1.667ZM20.837,3.667h15v6.669h-15Zm-3.517,0h1.85v7.5A.834.834,0,0,0,20,12H36.675a.834.834,0,0,0,.834-.834v-7.5h1.85l2.918,11.67H14.4ZM40.888,50.348H15.79L14.215,22.006H42.463Zm4.123-30.009H11.667V17H45.011Z"/><path class="a" d="M29.834,51.673h3.334A.834.834,0,0,0,34,50.84V30.834A.834.834,0,0,0,33.168,30H29.834a.834.834,0,0,0-.834.834V50.84A.834.834,0,0,0,29.834,51.673Zm.834-20.006h1.667V50.006H30.667Z" transform="translate(-3.162 -4.659)"/><path class="a" d="M39.834,51.673h3.334A.834.834,0,0,0,44,50.84V30.834A.834.834,0,0,0,43.168,30H39.834a.834.834,0,0,0-.834.834V50.84A.834.834,0,0,0,39.834,51.673Zm.834-20.006h1.667V50.006H40.667Z" transform="translate(-4.826 -4.659)"/><path class="a" d="M19.834,51.673h3.334A.834.834,0,0,0,24,50.84V30.834A.834.834,0,0,0,23.168,30H19.834a.834.834,0,0,0-.834.834V50.84A.834.834,0,0,0,19.834,51.673Zm.834-20.006h1.667V50.006H20.667Z" transform="translate(-1.498 -4.659)"/></g></svg>