<svg xmlns="http://www.w3.org/2000/svg" width="189" height="31.264" viewBox="0 0 189 31.264"><defs><style>.a{fill:#1c65e4;}</style></defs><g transform="translate(-73.973 -230.452)"><path class="a" d="M78.9,259.129a2.446,2.446,0,0,1-2.486,2.444,2.518,2.518,0,0,1-2.354-1.821,2.637,2.637,0,0,1-.09-.623v-26.2a2.465,2.465,0,0,1,4.93,0v7.727a10.135,10.135,0,0,1,4.752-1.287,9.713,9.713,0,0,1,9.68,9.725v10.035a2.442,2.442,0,1,1-4.885,0V249.094a4.774,4.774,0,1,0-9.547,0Z" transform="translate(0 0.01)"/><path class="a" d="M96.773,256.293a11.08,11.08,0,0,1-3.064-7.816,11.451,11.451,0,0,1,3.064-7.771,10.366,10.366,0,0,1,7.638-3.375,9.816,9.816,0,0,1,7.415,3.375,11.093,11.093,0,0,1,3.109,7.771,10.747,10.747,0,0,1-3.109,7.816,9.819,9.819,0,0,1-7.415,3.374A10.369,10.369,0,0,1,96.773,256.293Zm1.775-7.816a7.188,7.188,0,0,0,1.6,4.708,6.019,6.019,0,0,0,4.264,1.642,5.821,5.821,0,0,0,4.085-1.642,6.831,6.831,0,0,0,1.731-4.708,6.681,6.681,0,0,0-1.731-4.619,6.272,6.272,0,0,0-4.085-1.687,6.458,6.458,0,0,0-4.264,1.687A7.024,7.024,0,0,0,98.548,248.477Z" transform="translate(5.876 2.048)"/><path class="a" d="M133.442,246.523v10.658a2.37,2.37,0,0,1-2.354,2.354,2.438,2.438,0,0,1-2.4-2.354V246.523a4.53,4.53,0,0,0-9.059.134v10.525c0,.09-.044.222-.044.311v.132c-.044.09-.044.178-.134.266v.223a2.594,2.594,0,0,1-2.22,1.421c-.178,0-.31-.045-.444-.045a2.417,2.417,0,0,1-1.91-2.309V239.729a2.352,2.352,0,0,1,2.354-2.4,2.253,2.253,0,0,1,2.132,1.333,9.334,9.334,0,0,1,4.751-1.333,9.21,9.21,0,0,1,6.971,3.064,9.146,9.146,0,0,1,6.973-3.064,9.277,9.277,0,0,1,9.237,9.326v10.525a2.37,2.37,0,0,1-2.354,2.354,2.409,2.409,0,0,1-2.4-2.354V246.657a4.549,4.549,0,0,0-4.485-4.573A4.61,4.61,0,0,0,133.442,246.523Z" transform="translate(12.179 2.048)"/><path class="a" d="M144.674,248.433a10.994,10.994,0,0,1,10.835-11.1,10.622,10.622,0,0,1,10.7,10.3v.222a1.2,1.2,0,0,1-.045.4,2.139,2.139,0,0,1-2.309,1.777H149.736a5.822,5.822,0,0,0,1.511,2.93,6.872,6.872,0,0,0,4.262,2,7.253,7.253,0,0,0,4.619-1.11,2.514,2.514,0,0,1,3.331-.134,2.029,2.029,0,0,1,0,2.886,11.224,11.224,0,0,1-7.95,2.932A11.023,11.023,0,0,1,144.674,248.433Zm4.841-2.176h12.567a6.769,6.769,0,0,0-4.231-4.19,6.468,6.468,0,0,0-4.58-.061A6.033,6.033,0,0,0,149.515,246.257Z" transform="translate(21.05 2.048)"/><path d="M170.97,237.914v.622H172.3a2.435,2.435,0,0,1,2.442,2.442,2.463,2.463,0,0,1-2.442,2.442H170.97V259.1a2.443,2.443,0,0,1-4.886,0V237.914a9.208,9.208,0,0,1,.844-4.353,5.3,5.3,0,0,1,3.2-2.754,8.993,8.993,0,0,1,2.666-.356,2.465,2.465,0,0,1,0,4.93c-.577,0-1.267-.02-1.478.179C171.024,235.831,170.97,236.271,170.97,237.914Z" transform="translate(27.425)"/><path d="M180.377,230.487a2.474,2.474,0,0,1,2.488,2.442v26.2a2.465,2.465,0,0,1-4.93,0v-26.2A2.464,2.464,0,0,1,180.377,230.487Z" transform="translate(30.953 0.01)"/><path d="M186.536,248.433a11,11,0,0,1,10.836-11.1,10.622,10.622,0,0,1,10.7,10.3v.222a1.233,1.233,0,0,1-.044.4,2.14,2.14,0,0,1-2.31,1.777H191.6a5.832,5.832,0,0,0,1.511,2.93,6.872,6.872,0,0,0,4.263,2,7.251,7.251,0,0,0,4.617-1.11,2.514,2.514,0,0,1,3.331-.134,2.029,2.029,0,0,1,0,2.886,11.223,11.223,0,0,1-7.949,2.932A11.024,11.024,0,0,1,186.536,248.433Zm4.841-2.176h12.567a6.766,6.766,0,0,0-4.231-4.19,6.468,6.468,0,0,0-4.58-.061A6.033,6.033,0,0,0,191.377,246.257Z" transform="translate(33.514 2.048)"/><path d="M223.147,241.168l-5.286,7.284,5.286,7.326a2.349,2.349,0,0,1-.444,3.2,2.5,2.5,0,0,1-1.422.489,2.864,2.864,0,0,1-1.953-.977l-4.441-6.084-4.441,6.084a2.435,2.435,0,0,1-1.821.977,2.387,2.387,0,0,1-1.421-.489,2.271,2.271,0,0,1-.488-3.2l5.328-7.326-5.328-7.284a2.229,2.229,0,0,1,.488-3.152,2.331,2.331,0,0,1,3.242.488l4.441,5.95,4.441-5.95a2.5,2.5,0,0,1,3.375-.488A2.305,2.305,0,0,1,223.147,241.168Z" transform="translate(39.388 2.118)"/></g></svg>