<svg xmlns="http://www.w3.org/2000/svg" width="50.058" height="36.417" viewBox="0 0 50.058 36.417"><defs><style>.a{fill:#1c65e4;}</style></defs><g transform="translate(0 -64.176)"><path class="a" d="M67.244,86.676H23.031a.531.531,0,0,0-.531.531v26.941a.531.531,0,0,0,.531.531H67.244a.531.531,0,0,0,.531-.531V87.207a.531.531,0,0,0-.531-.531Zm-.531,26.941H23.563V87.739h43.15Z" transform="translate(-20.109 -20.109)"/><path class="a" d="M47.726,64.176H2.332A2.335,2.335,0,0,0,0,66.508V94.63a2.335,2.335,0,0,0,2.332,2.332H18.1L17.258,99H13.881a.8.8,0,0,0,0,1.594h22.3a.8.8,0,1,0,0-1.594H32.8l-.841-2.036H47.726a2.335,2.335,0,0,0,2.332-2.332V66.508A2.335,2.335,0,0,0,47.726,64.176ZM31.076,99H18.982l.841-2.036H30.235ZM48.464,94.63a.739.739,0,0,1-.738.738H2.332a.739.739,0,0,1-.738-.738V66.508a.739.739,0,0,1,.738-.738H47.726a.739.739,0,0,1,.738.738Z" transform="translate(0 0)"/></g></svg>