<svg xmlns="http://www.w3.org/2000/svg" width="49.506" height="49.951" viewBox="0 0 49.506 49.951"><defs><style>.a{fill:#1c65e4;}</style></defs><g transform="translate(-0.5 0.001)"><path class="a" d="M362.023,116.929,355.913,112a2.741,2.741,0,1,0-3.013,4.55l6.828,3.655a1.464,1.464,0,0,0,1.829-.372l.688-.853A1.464,1.464,0,0,0,362.023,116.929Zm-1.6,1.99-6.828-3.655a1.277,1.277,0,0,1,.466-2.4,1.307,1.307,0,0,1,.139-.007,1.267,1.267,0,0,1,.8.283l6.11,4.923Zm0,0" transform="translate(-316.713 -100.53)"/><path class="a" d="M114.89,120.417l1.785-.885a.732.732,0,1,0-.651-1.311l-1.785.886a1.48,1.48,0,0,0-.81,1.5l.54,4.4a1.477,1.477,0,0,0,2.123,1.144l10.158-5.038a1.48,1.48,0,0,0,.81-1.5l-.54-4.4a1.477,1.477,0,0,0-2.123-1.144l-5.744,2.849a.732.732,0,0,0,.65,1.311l5.744-2.849a.011.011,0,0,1,.013,0,.011.011,0,0,1,.007.011l.539,4.4a.014.014,0,0,1-.008.015l-10.158,5.038a.011.011,0,0,1-.013,0,.011.011,0,0,1-.007-.011l-.539-4.4A.014.014,0,0,1,114.89,120.417Zm0,0" transform="translate(-101.902 -102.801)"/><path class="a" d="M49.847,1.591,49.489.875A1.52,1.52,0,0,0,47.833.067l-5.4,1.091A1.649,1.649,0,0,0,40.56.872l-1.237.618-.155-.31A2.133,2.133,0,0,0,36.305.226L8.388,14.182a1.765,1.765,0,0,0-.961,1.79l.386,3.147L1.427,22.287a1.68,1.68,0,0,0-.75,2.251l1.234,2.469a1.68,1.68,0,0,0,1.5.927,1.66,1.66,0,0,0,.745-.176l4.443-2.2.252,2.053a1.755,1.755,0,0,0,1.9,1.541l4.082-.357A1.263,1.263,0,0,1,16.207,29.9l2.109,17.2a3.243,3.243,0,0,0,3.616,2.826L28.71,49.1a4.622,4.622,0,0,0,4.021-5.145l-.194-1.58a2.477,2.477,0,0,0-2.3-2.188,1.035,1.035,0,0,1-.967-.908l-.582-4.749A11.92,11.92,0,0,0,36.2,28.133a1.687,1.687,0,0,0-1.345-2.393,20.79,20.79,0,0,1-6.9-1.989,2.3,2.3,0,0,1,.509-.533l6.57-4.969a.732.732,0,0,0-.883-1.167l-6.57,4.969a3.782,3.782,0,0,0-1.468,3.465l1.709,13.937a2.5,2.5,0,0,0,2.333,2.191,1.013,1.013,0,0,1,.929.905l.194,1.58a3.157,3.157,0,0,1-2.746,3.514l-6.778.831a1.785,1.785,0,0,1-1.986-1.552l-2.109-17.2a2.72,2.72,0,0,0-2.949-2.388l-4.081.357a.3.3,0,0,1-.323-.261L8.88,15.795a.3.3,0,0,1,.163-.3L36.96,1.535a.67.67,0,0,1,.9.3l4.264,8.53a.672.672,0,0,1-.046.679.732.732,0,1,0,1.208.826,2.135,2.135,0,0,0,.147-2.159l-.178-.357,1.237-.619a1.649,1.649,0,0,0,.9-1.673L49.5,3.4A1.518,1.518,0,0,0,49.847,1.591ZM34.87,27.311a.207.207,0,0,1,.008.2,10.462,10.462,0,0,1-6.366,5.544l-.946-7.715c-.006-.051-.011-.1-.013-.153a22.463,22.463,0,0,0,7.143,2.01A.224.224,0,0,1,34.87,27.311ZM3.507,26.448a.214.214,0,0,1-.287-.1L1.986,23.884A.214.214,0,0,1,2.08,23.6L8,20.659l.411,3.355ZM43.928,7.321a.178.178,0,0,1-.091.105L42.6,8.044,39.977,2.8l1.237-.618a.182.182,0,0,1,.244.081l2.459,4.92A.179.179,0,0,1,43.928,7.321Zm4.6-5.013L44.784,5.642,43.21,2.494,48.123,1.5a.053.053,0,0,1,.058.028l.358.716A.053.053,0,0,1,48.526,2.308Zm0,0" transform="translate(0)"/></g></svg>