<svg xmlns="http://www.w3.org/2000/svg" width="35.026" height="49.936" viewBox="0 0 35.026 49.936"><defs><style>.a{fill:#1c65e4;}</style></defs><g transform="translate(-22.44 -4.75)"><path class="a" d="M50.407,40.569a7.013,7.013,0,0,0-3.873,1.164l-3.282-6.56L57.394,5.807a.738.738,0,0,0-.665-1.057,6.8,6.8,0,0,0-4.124,1.428,14.378,14.378,0,0,0-3.592,4.282l-.026.047L39.953,28.574,30.917,10.505c-.008-.016-.016-.032-.026-.047A14.373,14.373,0,0,0,27.3,6.177,6.8,6.8,0,0,0,23.178,4.75a.738.738,0,0,0-.665,1.057l14.14,29.365-3.281,6.561a7.055,7.055,0,1,0,2.849,8.044l3.732-7.754,3.733,7.754a7.058,7.058,0,1,0,6.721-9.207Zm-.11-29.38A13.115,13.115,0,0,1,53.487,7.36a5.663,5.663,0,0,1,1.994-.981L36.376,46.057A7.049,7.049,0,0,0,34.54,42.7ZM24.425,6.379a5.656,5.656,0,0,1,1.993.981,13.109,13.109,0,0,1,3.19,3.83l9.519,19.034L37.487,33.5ZM29.5,53.211a5.59,5.59,0,1,1,5.344-3.973l-.049.1a.729.729,0,0,0-.065.224,5.588,5.588,0,0,1-5.23,3.647ZM42.444,36.853,45.367,42.7a7.049,7.049,0,0,0-1.835,3.36l-2.759-5.731Zm7.964,16.358a5.588,5.588,0,0,1-5.23-3.645.729.729,0,0,0-.063-.221l-.053-.109a5.582,5.582,0,1,1,5.345,3.977Z"/><path class="a" d="M83.745,97.75a3.687,3.687,0,1,0,3.687,3.687,3.687,3.687,0,0,0-3.687-3.687Zm0,5.9a2.212,2.212,0,1,1,2.212-2.212A2.212,2.212,0,0,1,83.745,103.65Z" transform="translate(-33.338 -53.81)"/><path class="a" d="M34.129,97.75a3.687,3.687,0,1,0,3.687,3.687,3.687,3.687,0,0,0-3.687-3.687Zm0,5.9a2.212,2.212,0,1,1,2.212-2.212A2.212,2.212,0,0,1,34.129,103.65Z" transform="translate(-4.63 -53.81)"/></g></svg>